Results
version=1
nRows=9
nColumns=24
inDegrees=yes

Units are S.I. units (second, meters, Newtons, ...)
Angles are in degrees.

endheader
time	pelvis_tilt	pelvis_list	pelvis_rotation	pelvis_tx	pelvis_ty	pelvis_tz	hip_flexion_r	hip_adduction_r	hip_rotation_r	knee_angle_r	ankle_angle_r	subtalar_angle_r	mtp_angle_r	hip_flexion_l	hip_adduction_l	hip_rotation_l	knee_angle_l	ankle_angle_l	subtalar_angle_l	mtp_angle_l	lumbar_extension	lumbar_bending	lumbar_rotation
      0.07286476	     -1.57593321	     -1.88590174	      4.75953318	      0.00080291	      0.80097124	     -0.00445927	     19.77004904	     12.78147889	     13.53209251	    -62.10425712	     -5.14958731	      7.85120094	    161.72537810	     54.07406863	     -1.62130932	     14.31526296	    -50.80138404	     -1.00807166	      4.19341652	     64.99511663	    -18.66271423	      2.56232488	     -4.65690199
      0.07310537	     -1.56881559	     -1.87969816	      4.76682242	      0.00081023	      0.80082557	     -0.00447946	     19.75732368	     12.75856042	     13.50169657	    -62.07712889	     -5.22002171	      7.86800299	    162.31133461	     54.05465286	     -1.61166011	     14.31835473	    -50.77887939	     -1.03606479	      4.19338875	     65.21538488	    -18.66977958	      2.55911366	     -4.66389118
      0.07335376	     -1.56147664	     -1.87328740	      4.77433698	      0.00081781	      0.80067458	     -0.00450028	     19.74416988	     12.73487926	     13.47023370	    -62.04911411	     -5.29247926	      7.88494104	    162.91369785	     54.03460180	     -1.60171519	     14.32151393	    -50.75562388	     -1.06496320	      4.19337694	     65.44258785	    -18.67705854	      2.55579103	     -4.67109559
      0.07359874	     -1.55424794	     -1.86695977	      4.78173686	      0.00082531	      0.80052507	     -0.00452081	     19.73118108	     12.71150589	     13.43912321	    -62.02147682	     -5.36368721	      7.90123691	    163.50519239	     54.01482083	     -1.59192538	     14.32459721	    -50.73266706	     -1.09346138	      4.19338485	     65.66646599	    -18.68422201	      2.55250774	     -4.67818881
      0.07384372	     -1.54702839	     -1.86062602	      4.78912571	      0.00083285	      0.80037496	     -0.00454134	     19.71817627	     12.68811274	     13.40793173	    -61.99383159	     -5.43464737	      7.91712504	    164.09410893	     53.99503360	     -1.58215266	     14.32764773	    -50.70968869	     -1.12195689	      4.19341313	     65.89014822	    -18.69137042	      2.54921703	     -4.68527062
      0.07411468	     -1.53905392	     -1.85361325	      4.79728510	      0.00084122	      0.80020824	     -0.00456403	     19.70377381	     12.66221571	     13.37333843	    -61.96324553	     -5.51284753	      7.93422072	    164.74245072	     53.97314079	     -1.57136353	     14.33098323	    -50.68424859	     -1.15347031	      4.19347005	     66.13732235	    -18.69925933	      2.54556843	     -4.69309005
      0.07434776	     -1.53220302	     -1.84757566	      4.80429262	      0.00084845	      0.80006424	     -0.00458354	     19.69136875	     12.63992085	     13.34350214	    -61.93692606	     -5.57988356	      7.94852332	    165.29762261	     53.95430210	     -1.56210066	     14.33382036	    -50.66234342	     -1.18057513	      4.19354334	     66.34976158	    -18.70603076	      2.54242336	     -4.69980443
      0.07458085	     -1.52536049	     -1.84153268	      4.81128957	      0.00085571	      0.79991970	     -0.00460304	     19.67894937	     12.61760881	     13.31359343	    -61.91059924	     -5.64670437	      7.96245118	    165.85041202	     53.93545798	     -1.55285404	     14.33662724	    -50.64041908	     -1.20767569	      4.19363992	     66.56202489	    -18.71278849	      2.53927151	     -4.70650790
      0.07483775	     -1.51782860	     -1.83486587	      4.81898901	      0.00086375	      0.79975976	     -0.00462452	     19.66524457	     12.59299711	     13.28054517	    -61.88157413	     -5.72010580	      7.97736614	    166.45690227	     53.91468227	     -1.54268151	     14.33968552	    -50.61623257	     -1.23753959	      4.19377487	     66.79577173	    -18.72022076	      2.53578956	     -4.71388355
